<?xml version="1.0" standalone="no"?>
<!DOCTYPE svg PUBLIC "-//W3C//DTD SVG 20010904//EN"
 "http://www.w3.org/TR/2001/REC-SVG-20010904/DTD/svg10.dtd">
<svg version="1.0" xmlns="http://www.w3.org/2000/svg"
 width="700.000000pt" height="700.000000pt" viewBox="0 0 700.000000 700.000000"
 preserveAspectRatio="xMidYMid meet">
<metadata>
Created by potrace 1.14, written by Peter Selinger 2001-2017
</metadata>
<g transform="translate(0.000000,700.000000) scale(0.100000,-0.100000)"
fill="#000000" stroke="none">
<path d="M0 3500 l0 -3500 3500 0 3500 0 0 3500 0 3500 -3500 0 -3500 0 0
-3500z m2110 -399 c247 -79 412 -296 419 -554 11 -384 -347 -679 -724 -596
-75 17 -204 82 -262 134 -65 57 -136 163 -169 252 -35 94 -41 237 -13 342 54
209 226 379 437 432 90 22 226 18 312 -10z m3653 -571 l47 0 0 -295 c0 -229
-3 -295 -12 -296 -7 -1 -575 -2 -1261 -3 -798 0 -1251 3 -1255 9 -3 5 -6 138
-6 295 l-1 285 30 5 c22 4 2108 4 2458 0z"/>
</g>
</svg>
